<svg width="14" height="67" viewBox="0 0 14 67" fill="none" xmlns="http://www.w3.org/2000/svg">
<g clip-path="url(#clip0)">
<path d="M10.87 28.75C8 27.56 4.8 29.66 3.6 32.36C3.2346 33.2023 2.98564 34.0905 2.86 35C2.20525 34.2203 1.70928 33.3201 1.4 32.35C0.519997 29.35 1.08 25.78 3.08 21.67C3.69 20.41 4.4 19.15 5.08 17.93C6.31876 15.8555 7.38245 13.6813 8.26 11.43C9.82 7.07 9.55 2.9 7.51 0L6.69 0.58C9.32 4.31 8 9.18 7.32 11.1C6.45978 13.2954 5.41957 15.416 4.21 17.44C3.52 18.67 2.8 19.94 2.21 21.24C0.0699973 25.57 -0.510003 29.41 0.449997 32.63C0.88562 34.0557 1.67316 35.3488 2.74 36.39C2.72702 37.8343 2.81389 39.2777 3 40.71C3.14 42.2 3.36 43.86 3.59 45.63C4.37 51.63 5.33 58.95 3.94 64.29L3.18 62.83L2.7 64.2L3.81 66.33L5.93 65.22L6.36 63.84L4.83 64.64C6.31 59.1 5.33 51.64 4.53 45.5C4.3 43.74 4.09 42.08 3.94 40.61C3.84 39.52 3.73 38.37 3.72 37.22C4.03786 37.4566 4.37202 37.6705 4.72 37.86C5.47399 38.282 6.30476 38.5489 7.16343 38.6451C8.0221 38.7412 8.89134 38.6647 9.72 38.42C10.7769 38.005 11.6854 37.2832 12.3287 36.3477C12.9721 35.4121 13.3208 34.3054 13.33 33.17C13.4365 32.2682 13.2562 31.3558 12.8146 30.5623C12.373 29.7688 11.6926 29.1347 10.87 28.75V28.75ZM9.47 37.47C8.76586 37.6777 8.02741 37.7431 7.29773 37.6624C6.56805 37.5817 5.86174 37.3565 5.22 37C4.69823 36.7211 4.20863 36.3857 3.76 36C3.82654 34.8985 4.08016 33.8164 4.51 32.8C5.51 30.57 8.2 28.75 10.51 29.7C11.1522 30.0013 11.6823 30.4986 12.0237 31.1204C12.3652 31.7422 12.5004 32.4564 12.41 33.16C12.3979 34.0879 12.1125 34.9916 11.5896 35.7581C11.0667 36.5247 10.3295 37.1201 9.47 37.47V37.47Z" fill="#383144"/>
</g>
<defs>
<clipPath id="clip0">
<rect width="13.38" height="66.33" fill="white"/>
</clipPath>
</defs>
</svg>
